<svg enable-background="new 0 0 512.006 512.006" version="1.1" viewBox="0 0 92.136 100" xmlns="http://www.w3.org/2000/svg">
 <g transform="matrix(.19531 0 0 .19531 -3.9315 3.3311e-5)" stroke-width="5.1201">
  <path d="m123.3 5.38c-12.2 0.7-23.3 2.2-35.1 5.6s-21.4 9.5-31.1 16.9c-13.5 10.3-23.8 23.4-28 40.2-4 16.3-1.8 32.1 6 46.9 6 11.4 17.1 19.1 28.4 24.5 12.5 5.9 28.8 8.5 42.5 9.5 6.4 0.5 12.8 0.6 19.2 0.9 2.5 0.1 7.7-0.7 10 0.4 2.2 1 4.3 5.9 5.7 7.5 4 4.8 8.2 9.5 12.9 13.6 2.9 2.6 5.7 4.8 9.1 6.7 1 0.6 2.1 0.8 2.9 1.6 3.4-9.1 3.1-19.3 3.8-28.8 0.2-2.5-0.1-4.4 1.7-5.9 2.1-1.7 8.6-2.4 11.2-3.3 26.4-9.2 55.8-27.3 59.2-58 2.7-24-13.7-45.1-31.7-59-23.1-17.7-52.1-23.7-80.7-20.3" fill="#5bd0fc" stroke-width="26.215"/>
  <g fill="#f0f2fa" stroke-width="5.1201">
   <path d="m337.3 171.98c-13.6 0.3-27.3-1-41-1.1-7.7 0-15.2 0.6-22.9 1.1-7.2 0.4-14.7-0.2-21.8 1.5-10.7 2.6-20.8 8.4-25.5 18.5-5.7 12-7 22.8-7.4 36-0.8 26.3 0.7 52 7.2 77.6 2.2 8.7 5.8 14.5 13.8 19 10.3 5.7 22.9 7.2 34.3 8.7 29.7 4.1 60.1 1.7 90 0.3 10.2-0.5 20-2.4 30-4.6 6.8-1.5 14.5-2.6 20.9-5.7 14.3-6.9 17.9-24.3 18.6-38.8 1-21.4 1.3-43.7 0-65-0.6-9.7-1-20.8-3.4-30.2-1.8-7.2-6.6-11.3-13.4-14-11.9-4.7-25.4-5.9-38.1-6.9-7.4-0.5-14.6-1-22.1-1-7.2 0.1-15.2-0.6-19.2 4.6z"/>
   <path d="m334.1 366.38c-34.1-5-68.8-1.6-103 1-12.8 1-25.8 2.8-37.6 8.2-12.5 5.7-18.4 20.5-19.7 33.4-1.3 13.7-1.6 28.2-1.8 42-0.1 11-0.9 22.5 0.3 33.5 0.5 4.1 0.7 14.2 3.4 17.8 4.7 6.1 23.1 3.6 28.8 3.1 28.3-2.4 56.8-1.5 85.1-1.4 27.4 0.1 54.9-3.7 82.2-1.4 4 0.3 8 0.7 11.9 1.1 9.2 0.8 18.4 0.9 27.6 0.3 10.5-0.7 22.2-1.3 32.7-0.4 8.7 0.7 16.2 1.5 25-0.8 3.1-0.8 6.7-0.8 9.5-2.2 10.1-5.2 7.5-14.3 7-23.3-0.7-12.9-2.9-25.6-3.8-38.5-0.9-13.3-2.2-27.4-5.2-40.5-2.6-11.5-9-19.4-19.6-24.4-14.5-6.9-32.4-8.6-48.2-10-24.2-2-47.9 1.9-74.6 2.5z"/>
  </g>
  <path d="m232 491.98c-0.2-7.5-0.8-14.4 0-21.9 0.8-8 1.7-16 2.3-24.1 0.5-6.3 0.8-12.7 1.7-19 1-6.5 0.7-13.3 6.1-18 4.2-3.7 10.9-6.2 16.5-6 4.5 0.2 8.8 2.2 13.3 2.8 7.8 1 16.1 0.2 24 0 24.8-0.8 49.7-1.5 74.5-0.4 13.9 0.6 27.8 0.5 41.6 2.1 4 0.5 9.9-0.5 12.5 3 5.8 7.7 1.7 20.5 0.9 29-1.7 18.8-1.1 37.8-1.1 56.7 0 5.5 1.2 7.6-4.8 8-24.6 1.5-49.7 0.8-74.3 0-36.3-1.2-72.8 2.9-108.9-2.5-6.4-1-4.1-3.9-4.3-9.7z" fill="#d8deec" stroke-width="26.215"/>
  <path d="m279.8 333.28c-0.3 5.8 0.8 11.5 1 17.2 0.2 3.9-1.6 12.2 0.5 15.8 1.9 3.2 4.4 1.9 7.5 1.5 21.9-2.8 43.9-2.1 65.9-2.7 3.8-0.1 7.6-0.8 11.5-0.7 1.1 0 6 1.1 6.9 0.3 0.8-0.7 0.3-2.8 0.3-3.7 0.1-5.9-0.8-11.8-1.6-17.7-0.5-4-0.5-8-0.5-12-12.5 1.7-25.3 1.7-37.9 2.4-17.7 0.9-35.5 1.4-53.6-0.4z" fill="#5b5d6d" stroke-width="26.215"/>
  <path d="m313.9 84.58c-0.6 19.6 1.2 39.9 4 59.3 5.1-3 16.1-4.5 21.7-2.2 1.2-15.1-3.8-30.2-2.4-45.4 0.4-4.6 1.8-9.6 0.3-14.1-7.5 0.2-14.5 1.5-23.6 2.4z" fill="#d8deec" stroke-width="26.215"/>
  <path d="m325.4 39.28c-4.6-1.5-11.1 5.1-13.9 8.4-4.7 5.6-5.8 9.7-5 16.7 1.3 10.6 9.8 15.9 20 16.3 11.4 0.5 18.4-5.8 22-16.5 1.7-5 1.6-11.4-1.5-15.9-2.3-3.4-6.2-4.1-9.6-6-2.6-1.4-5.6-4.8-12-3z" fill="#ed6d66" stroke-width="26.215"/>
  <g fill="#f9d889" stroke-width="5.1201">
   <path d="m263.4 217.98c-10.5 6.4-16.3 21-9.3 31.8 5.2 8.1 15.8 12.8 25.1 8.3 9.8-4.8 12.8-18 10.7-27.9-2.6-11.7-17.3-21.6-26.5-12.2z"/>
   <path d="m376.6 218.38c-11.3 5-13.6 19.6-8.5 30 4.2 8.6 13.5 10.5 22.2 8.3 9.6-2.4 13.4-11.8 13.8-21.2 0.2-4.8-0.3-9.7-3.3-13.6-4.1-5.6-13.8-8.9-24.2-3.5z"/>
  </g>
  <path d="m324.4 227.08c-4.9 3.9-7.9 12.2-10.5 17.6-1.3 2.7-3.2 5.8-3.1 8.9 5.3 2.5 12.9 0.8 18.6 1.1 3.4 0.2 7.4 1.5 10.6-0.1 4.9-2.3 0.1-9.2-1.7-13.5-1.6-3.9-3.8-6.5-5.9-9.9-0.9-1.7-1-4.9-8-4.1z" fill="#d8deec" stroke-width="26.215"/>
  <path d="m354.3 272.38c-15.7-4.6-32-2.8-48.2-2.8-12.2 0-27-1.9-38.7 2-3.8 1.3-9.9 4.7-11.8 8.6s-0.6 11 0.8 14.9c5.2 13.9 27.1 12.3 39.2 13.2 13.1 0.9 26 1.8 39.1 1.7 11.8 0 23.4-2.6 35.1-3.5 5.6-0.4 12.5 0 17.4-2.8 5-2.9 8.9-9.4 9.1-15.3 0.3-5.9-4.8-12.3-9.8-14.9-5.3-2.8-11.1-3.2-17-3.7-5-0.5-9.9-1.1-14.9-0.3-2.9 0.4-5.9 1.9-8.8 1.2" fill="#fff" stroke-width="26.215"/>
  <path d="m265.5 427.08c-2.8 0.7-5.4 5.4-7 7.8-3.7 5.9-5.5 11-3.7 17.7 3.5 12.6 16.4 19.5 28.3 12.8 9.2-5.2 10.6-21.4 7.3-30-1.7-4.6-4.5-9.3-9.6-10.8-4.6-1.4-10.4 1.8-15.3 2.5z" fill="#ed6d66" stroke-width="26.215"/>
  <path d="m315.6 429.18c-11.8 6.9-10.6 28.9 0.4 36.3 7.3 5 18.5 1.1 23.9-5.1 5.3-6 7.3-18.1 3.3-24.9-2.1-3.6-4.5-5.2-8.2-7.1-6.5-3.4-10.5-3.1-19.4 0.8z" fill="#cbe580" stroke-width="26.215"/>
  <path d="m364.1 428.08c0 15.8-0.8 31.5-1.4 47.3-0.2 4.9 0.2 9.8 0.4 14.7 0.3 5-0.8 11.3 0.8 16.1 10.9 0.1 24.7 3 35.5-0.4 2-0.6 1.7 0 2.7-1.5 0.9-1.3 0.2-7.2 0.2-8.1 0.1-4.7 0.6-9.4 0.9-14.1 1.1-18.5 1.4-37.2 1.6-55.7-11.4-0.8-23 1.7-40.7 1.7z" fill="#f9d889" stroke-width="26.215"/>
  <g fill="#5b5d6d" stroke-width="5.1201">
   <path d="m340.7 482.78c-0.3-5.4-10.1-4.8-13.6-4.9-8.8-0.3-17.5-0.1-26.3-0.7-14.2-0.9-28.9-0.4-43.1 0.7-4.3 0.3-10.3 5.4-4.8 9.4 2.1 1.6 9.1 1.1 11.7 1.5 4.4 0.7 8.8 1 13.2 1.3 16.3 1 31.7 1.3 47.9-0.8 4.3-0.4 21.2 1.1 15-6.5z"/>
   <path d="m277.6 170.48c-0.6 0.9-1.1 1.8-1.8 2.6 2-4.6 7.9-9.1 11.8-12.1 5.8-4.4 13.1-8.6 20-11 12.2-4.2 25.4-4.2 38.1-2.1 5.1 0.8 8.9 2.5 13.4 5 3.4 1.9 6.3 2.6 9.1 5.4 3.5 3.6 9.7 11.7 6.4 16.9-2.7-0.1-5.4-0.7-8.1-0.7-11.6-0.2-23.1 0.6-34.7 0.3-10.9-0.3-21 0.2-31.9 1.5-5.6 0.7-15.3 3.2-20.6 0.3"/>
  </g>
  <g stroke-width="5.1201">
   <path d="m71.102 42.88c20.2 0.2 40.3 1.7 60.5 1.9s40.4 0.4 60.5 0c4.6-0.1 4.6-7.1 0-7.2-20.2-0.4-40.4-0.2-60.5 0-20.2 0.2-40.4 1.7-60.5 1.9-2.1 0.1-2.1 3.3 0 3.4z"/>
   <path d="m71.102 69.08c20.2 0.2 40.3 1.7 60.5 1.9s40.4 0.4 60.5 0c4.6-0.1 4.6-7.1 0-7.2-20.2-0.4-40.4-0.2-60.5 0-20.2 0.2-40.4 1.7-60.5 1.9-2.1 0.1-2.1 3.4 0 3.4z"/>
   <path d="m275.7 261.08c13.7-2.4 21.4-16.3 18.5-29.3-3-13.9-17-23.6-30.9-18.2-5.9 2.3-10.2 7-12.7 12.6-2.5 4.4-3.4 9.6-2.7 14.7 1.8 13.3 14.6 22.5 27.8 20.2zm-21.6-27.7c1.7-8 9.1-14.5 17.5-13.9 12.8 1 20.1 17.1 13 27.7-10.4 15.4-34.3 3.8-30.5-13.8z"/>
   <path d="m388.2 261.08c13.7-2.4 21.4-16.3 18.5-29.3-3-13.9-17-23.6-30.9-18.2-5.9 2.3-10.2 7-12.7 12.6-2.5 4.4-3.4 9.6-2.7 14.7 1.9 13.3 14.7 22.5 27.8 20.2zm-21.6-27.7c1.7-8 9.1-14.5 17.5-13.9 12.8 1 20.1 17.1 13 27.7-10.4 15.4-34.2 3.8-30.5-13.8z"/>
   <path d="m328.3 259.08c5 0.2 13 0.5 16.2-4.3 2.9-4.3 0.8-11.2-1.2-15.4-2.4-5.1-7.2-13.8-12.5-16.3-5-2.3-9 1.6-11.5 5.6-1.4 2.2-2.7 4.5-4 6.8-1.3 1.8-2.4 3.7-3.4 5.7-2 4.1-5.1 10.1-1.1 14 3.9 3.7 12.5 3.7 17.5 3.9zm-12.2-13.1c1.3-2.4 2.5-4.9 3.8-7.3 1.1-1.9 4.5-8.6 7.2-8.6 1.6 0 7 8.5 7.7 9.6 1.2 1.9 5.5 8.4 4 10.9-1.7 2.8-8.8 1.8-11.4 1.7-2.5-0.1-4.9-0.4-7.3-0.9-2.4-0.4-4.5-0.1-4.4-3.2 0-0.7 0.1-1.5 0.4-2.2z"/>
   <path d="m344.3 313.68c13.7-0.4 28.9-1.4 41.7-6.9 9.5-4.1 18.1-14.4 13.5-25.2-5.5-12.9-23.9-13.7-35.7-14.4-12.5-0.7-25.1-0.9-37.6-0.7-11.4-0.8-22.9-1-34.3-0.5-12.1 0.6-28.6 1.2-37.2 11.1-7.2 8.3-4.4 19.5 4.1 25.6 10.7 7.7 26.9 8.4 39.6 9.5 15.1 1.3 30.6 1.9 45.9 1.5zm-69.7-11.6c-1.1-0.3-2.2-0.5-3.3-0.8-4.9-1.4-10.4-3.5-12.9-8.3-3.2-6.3 1.4-12.1 7-14.6 3.1-1.4 6.5-2.4 10-3.1-0.4 8.9-1 17.9-0.8 26.8zm25.7 3.5c-6.3-0.4-12.6-1-18.8-2v-0.1c0.4-9.6-0.4-19.4-0.8-29 6.7-0.8 13.7-0.8 20-1-0.9 10.6-0.9 21.5-0.4 32.1zm23.2 0.9c-4.9-0.1-9.7-0.3-14.6-0.5-0.8 0-1.6-0.1-2.4-0.1 0.1-10.8-0.3-21.8-1.7-32.5 6.6 0 13.2 0.1 19.7 0.4-0.3 10.9-0.8 21.8-1 32.7zm54.9-29.6c2.3 0.3 4.5 0.7 6.7 1.6 4.1 1.7 8.3 5.4 8 10.2-0.4 6.5-6.7 10.4-12.2 12.3-0.8 0.3-1.6 0.5-2.4 0.8-0.3-8.3-0.3-16.6-0.1-24.9zm-4.9-0.4c-1 9-1.7 18.1-2.4 27.2-4.9 1-9.9 1.7-14.9 2.1-0.3-10.1-1.3-20.2-1.7-30.4 6.3 0.5 12.7 0.8 19 1.1zm-43.8-2.5c7 0.3 14.1 0.8 21.1 1.2-0.6 10.3-1.6 20.7-1.4 31-1.4 0.1-2.7 0.1-4.1 0.2-4.9 0.2-9.9 0.2-14.8 0.2-0.2-10.8-0.5-21.7-0.8-32.6z"/>
   <path d="m277.8 469.18c27.1-5.5 22-55.4-7.7-47.3-9.2 2.5-16.6 11.1-18.1 20.5-0.7 2.6-0.8 5.4-0.4 8.4 1.9 12.5 13.7 20.9 26.2 18.4zm-16.5-34.4c3-3.4 7.2-5.7 12-6.1 12.7-1 16.5 13.2 13.2 23.1-3.7 11.2-18.2 14.1-25.4 4.3-4.8-6.6-4.2-15.1 0.2-21.3z"/>
   <path d="m271.9 448.58c2-0.8 3-2.3 4.2-4 1.3-1.6 2.5-3.3 3.7-5 2.3-3.1-3.2-6.5-5.3-3.1-1 1.7-2 3.3-3 5-0.9 1.6-2.1 3.2-2 5.2 0 1.2 1.2 2.4 2.4 1.9z"/>
   <path d="m329.6 421.88c-29.7-8.1-34.8 41.8-7.7 47.3 12.5 2.5 24.3-5.9 26.2-18.4 0.5-3 0.3-5.8-0.4-8.4-1.5-9.4-8.9-18-18.1-20.5zm9 34.2c-7.1 9.8-21.7 6.9-25.4-4.3-3.3-9.9 0.5-24.1 13.2-23.1 4.8 0.4 9 2.7 12 6.1 4.3 6.2 4.9 14.7 0.2 21.3z"/>
   <path d="m325.1 436.58c-2.1-3.4-7.5 0-5.3 3.1 1.2 1.7 2.4 3.4 3.7 5s2.2 3.2 4.2 4c1.2 0.5 2.4-0.7 2.4-1.8 0-2-1.1-3.5-2-5.2-1-1.8-2-3.5-3-5.1z"/>
   <path d="m327.6 475.98c-10.7-0.5-21.6-1.2-32.3-0.4-6-0.2-12-0.4-17.9-0.6-4.6-0.1-9.3-0.3-14-0.3-3.5 0-7.5-0.2-10.7 1.4-4.6 2.3-7.5 9-3.1 12.9 2 1.8 4.6 2 7.2 2.1 5.3 0.3 10.7 0.2 16 0.4 10.3 0.3 20.7 0.6 31 1 10 0.3 20.2 1.3 30.1 0.8 5.4-0.2 12-3.2 11.9-9.6-0.1-8.8-12.3-7.4-18.2-7.7zm10.7 10.9c-1.7 1.6-5.4 1.1-7.5 1.1-18-0.2-36-0.8-54.1-1.3-4.7-0.1-9.3-0.3-14-0.4-1.6 0-4.5 0.3-6-0.2-2.2 0.3-3-1.1-2.4-4.2 1-0.5 2-0.8 3.1-0.8 3.9-0.5 8.1 0.1 12 0.2 4.7 0.1 9.3 0.1 14 0.1 14.7-0.1 29.4 0 44.1-0.2 2.1 0.2 4.2 0.3 6.2 0.5 1.2 0.1 9.8 0.3 4.6 5.2z"/>
   <path d="m176.9 182.28c-1.6-7.8-2.4-15.7-2.4-23.6 0-2.5-0.7-6.5 1.4-8 1-0.7 3.4-0.8 4.6-1.1 2.2-0.6 4.4-1.3 6.6-2 12.2-4.3 23.6-10.9 33.8-18.8 10.1-7.7 19-16.9 24-28.7 4.8-11.3 5.4-24 2.8-36-5.4-24.8-25.4-43.2-48.1-52.9-26.3-11.1-57.2-12.4-85.4-10.4-17.9 1.3-36.5 5.9-51.5 15.7-19.2 10.6-34.8 28-40.4 49.6-5.9 22.5 0.4 45.7 16.8 62.2 17.4 17.5 41.7 24.9 65.8 27.4 6.9 0.7 14.3 0 21.1 1.3 5.7 1 9.8 8 13.6 12 8.5 9.1 18.1 17.8 30.7 20.2 4.1 0.7 7.5-2.6 6.6-6.9zm-12.8-21.6c0 5 0.3 9.9 0.8 14.9-6.2-3.3-11.4-8.3-16.3-13.6-6.9-7.5-12.4-16-23.5-16.7-23.2-1.5-46.2-2.4-66.6-15.1-20.6-12.8-33.5-36.9-26.8-61 10.3-36.8 44.2-56.6 80.6-58.8 26.4-1.6 55.1 0.4 79.7 10.5 21.2 8.7 40.2 25.4 45.2 48.6 2.5 11.5 1 23.9-5.3 33.9-6.5 10.4-17 18.1-27.2 24.5-5.9 3.7-12.2 7.1-18.8 9.5-5.4 2-12.8 2.2-17.4 5.8-5.1 4-4.4 11.7-4.4 17.5z"/>
   <path d="m491.3 435.98c-1-14.9-3-30.7-8.6-44.7-5-12.6-14.3-21.1-27.2-25.3-13.3-4.3-28.2-4.4-42-5.2-11.7-0.7-23.5-1.1-35.3-1.4-0.8-7.2-2.2-14.3-3.1-21.4 8.9-0.7 17.7-1.7 26.4-3 11.7-1.7 22.4-5.5 29.2-15.8s8.5-23.5 9.9-35.5c1.7-15 1.7-30.3 1-45.4-0.6-13.9-1.2-28.2-3.5-41.9-2.2-13.2-10.3-22.8-23.2-26.4-11.7-3.3-24.5-2.8-36.7-2.6-6.9-12.6-20-21.4-34.1-25.6 0.4-4.8-0.5-9.8-0.9-14.5-0.4-5.3-0.7-10.6-0.9-15.9-0.5-9.9-1-19.8-1.2-29.6 9.1-7.1 13.9-21.4 10.6-31.6-2.2-6.9-7.4-11.8-14.4-13.7-6.6-1.8-15.9-2.3-22 1-5.8 3.1-10.2 8.4-12.5 14.5-1.9 3.6-2.8 7.7-2.2 12.2 0.5 3.6 2 7 4 9.9l0.6 0.9 0.1 0.1c0.2 0.3 0.4 0.5 0.6 0.8 1.4 1.6 2.9 3.1 4.6 4.4-1.4 9.4-0.1 19.9 0.2 29.3 0.3 10.3 0.1 20.9 1.2 31.2-6.1 1.4-12 3.8-17.4 6.9-9.3 5.4-16.1 12.1-21 21.3-16.4 1-32.6 4.3-45.3 14.4-21.8 17.4-16.7 46.5-14.8 70.9 1.2 15.3 2.4 30.7 3.6 46 0.9 11.6 2.6 23 13.8 29.1 11.6 6.4 26.7 7.6 39.6 9.1l5.4 0.6c-0.6 6.4 0.2 13.5 0.3 19.8-4.4 0.1-8.8 0.2-13.3 0.4-17.6 0.7-35.9 1.6-53 5.9-14.5 3.7-31.3 11-36.3 26.4-2.7 8.1-2.2 17.3-2.5 25.7-0.3 9.4-0.6 18.9-0.9 28.3-0.3 10.4-0.6 20.8-0.9 31.3-0.7 4.9-1.5 9.8-2.2 14.7-0.9 5.7-0.8 12.5 4.9 15.8 5.6 3.2 14.6 1.6 20.8 1.7 8.7 0.1 17.5 0.2 26.2 0.3 16.8 0.2 33.6 0.4 50.4 0.7 33.6 0.5 67.1 0.9 100.7 1.4 32.7 0.4 65.8 1.4 98.4-1.2 5.8-0.5 12-1.5 16.3-5.9 5.5-5.5 5.3-13.6 5.8-20.8 1.3-15.8 1.9-31.7 0.8-47.6zm-182.6-374.2c-0.4-5.3 2.2-10.6 6.5-13.7 6.5-4.8 20-4.5 25.2 2.3 3.7 4.7 2.8 11.4 0.3 16.4-2.9 5.9-7.3 11.1-14.4 10.5-8.2-0.7-16.9-6.6-17.6-15.5zm24.8 66.5c0.1 3.7-0.1 7.6 0.3 11.3-2.8-0.4-5.7-0.5-8.4-0.5-1 0-2 0.1-3 0.1-0.1-9.9-1.3-19.9-2-29.7-0.4-5.3-0.8-10.5-1.2-15.8-0.3-3.1-0.4-6.2-0.8-9.2 4.6 1.7 9.5 2.3 14.3 1.3 0.7-0.1 1.3-0.3 1.9-0.5-0.6 9-1.1 18-1.2 27.1 0 5.4 0 10.6 0.1 15.9zm-8.8 22.3c8.6-0.3 17.2 1.5 24.8 5.5 5.7 3 10.1 6.8 13.8 11.4-19.9 0-39.8 0.4-59.7 1.3-6.6-0.1-13.4-0.3-20.3-0.1 11.9-9.7 26.1-17.5 41.4-18.1zm-68.7 174.1c-5.4-1.1-11.1-2.1-16.3-4.1-5.9-2.2-9-6-10.2-12.1-2.5-12.4-2.5-25.6-3.7-38.2-1.2-12.9-2.6-25.9-3.4-38.8-0.8-11.7-0.6-24.6 7.2-34.1 7.7-9.6 20-13.9 31.8-15.9 14.8-2.5 30.2-2.8 45.1-3.3 30.5-0.9 60.9-0.4 91.4 0.9 0.8 0 1.3-0.2 1.8-0.6 7 0.7 14.3 2.2 19.7 6.6 4 3.3 5.6 8.1 6.4 13.1 1 6.7 1.2 13.6 1.7 20.3 1 13.2 2 26.4 2.1 39.6 0.1 12.9-0.4 26-2.6 38.7-1.8 10.5-5.3 20.9-16.1 24.9-11.6 4.3-25.3 4.6-37.6 5.3-12.9 0.8-25.8 1.2-38.7 1.6-26.3 1-52.8 1.2-78.6-3.9zm111 22.2c-14-0.7-28.2-0.1-42.2-0.1-13.2 0-26.6-0.6-39.8 0.3v-0.1c-0.2-2.4-0.3-4.9-0.6-7.3 9.9 0.6 19.8 0.8 29.7 0.6 17.7-0.2 35.6-0.6 53.4-1.7-0.2 2.8-0.4 5.6-0.5 8.3zm0.2 12.4c-1.3 0-2.5-0.1-3.8-0.1-25.7-0.4-51.4-0.8-77.1-0.5-0.2-2.2-0.5-4.5-0.7-6.7 13 1.1 26.3 0.9 39.3 1.2 14 0.4 28.1 1.3 42.1 1 0 1.7 0 3.4 0.2 5.1zm31.2 140.3c-3.4 0-6.9 0-10.3-0.1l-24-0.3c0.1-3.8 0.2-7.6 0.3-11.5 11.6 1.2 23.2 2.6 34.9 2.8-0.4 3.1-0.6 6.1-0.9 9.1zm1.3-15.2c-11.7-1-23.6-0.5-35.3 0 0.1-6 0.2-12 0.4-18 11.7 2.1 24 2.2 35.9 2.7-0.3 5.1-0.6 10.2-1 15.3zm1.7-29.7c-0.1 2.7-0.2 5.3-0.4 8-11.8-1.3-24.5-2.1-36.2 0.2 0-1.3 0.1-2.5 0.1-3.8l0.3-14.1c12 1.3 24.3 2.4 36.4 2.1 0 2.5-0.1 5.1-0.2 7.6zm0.5-12.9c-12.1-0.8-24.4-0.7-36.5-1.1 0-1.8 0.1-3.6 0.1-5.4 0-1.1-0.4-5.4 0.2-5.9 0.8-0.6 2.6-0.2 3.6-0.3 4-0.2 8-0.3 12.1-0.3 4.8 0 9.6 0.5 14.4 0 1.8-0.2 3.8-0.1 5.1 1.1 1.5 1.4 2.1 12 1 11.9zm18.2 18.7c-0.4 13-0.5 26.1-1.3 39.1-4.3 0-8.6 0.1-12.9 0.1 1.3-18.6 2.4-37.2 2.7-55.9 0.1-4.6 0.5-9.4 0.1-13.9-0.2-2.2-0.5-4.3-2.5-5.7-2.6-1.8-6.9-1.3-9.8-1.4-4.7-0.2-9.4-0.3-14.1-0.3s-9.4 0.1-14.1 0.4c-2.7 0.2-5.9 0.1-7.8 2.4-1.8 2.2-1.4 5.6-1.5 8.2-0.2 4.6-0.3 9.2-0.4 13.8-0.5 17.3-0.2 34.7 0.8 52-20.6-0.3-41.1-0.6-61.7-0.8-21.4-0.3-42.8-0.6-64.2-0.9 2-20 1.2-40.1 3-60.1 0.6-5.9 1.1-11.9 2.4-17.7 1.4-5.9 4.5-9 10.3-10.6 10.7-2.9 23-2.2 34-2.2 24.1-0.2 48.3 0.4 72.4 1.2 12.2 0.4 24.4 1 36.6 2 5.9 0.5 11.8 1 17.7 1.7 2.4 0.3 5.2 0.1 7.4 1 3.5 1.4 3.3 4.1 3.5 7.5 1 13.1-0.2 26.7-0.6 40.1zm59-3.6c-0.2 7-0.5 14-1 21-0.3 4.6 0.8 16-4 18.4-5.2 2.6-13 1.9-18.6 2.2-7.3 0.4-14.5 0.7-21.8 0.8-2.1 0.1-4.2 0.1-6.3 0.1 0-26 3-52.3 1.4-78.3-0.3-4.4-0.3-9.7-3.7-13s-8.7-3.3-13.1-3.8c-13.8-1.5-27.6-2.4-41.4-2.9-27-1.1-54.2-1.4-81.2-1.3-12.6 0.1-25.8-0.4-38.3 1.5-9.7 1.5-16.8 6.3-19.1 16.1-6.2 25.9-2.8 53.3-2.6 79.8-11.4-0.2-22.7-0.3-34.1-0.5-4-0.1-8.1-0.1-12.1-0.2-0.5 0-3.4 0.3-4.7 0.2 0.5-0.5 0.4-3.1 0.4-3.5 0.9-7.9 1.8-15.8 2.3-23.7 0.5-10.1 0.6-20.1 0.2-30.1 0.7-10.1 1.3-20.3 1.9-30.4 0.3-6.2 0.2-13.1 3.9-18.4s10-8.5 15.9-10.9c13.3-5.3 28-6.7 42.2-7.8 30-2.3 60.2-1.7 90.2-1.5 30.1 0.2 60.3 0.9 90.3 3.3 11.6 0.9 24.5 1.4 34.6 7.8 10.9 6.8 13.9 20.8 16.1 32.6 2.4 13.9 2.9 28.3 2.6 42.5z"/>
   <path d="m71.102 95.28c20.2 0.2 40.3 1.7 60.5 1.9s40.4 0.4 60.5 0c4.6-0.1 4.6-7.1 0-7.2-20.2-0.4-40.4-0.2-60.5 0-20.2 0.2-40.4 1.7-60.5 1.9-2.1 0.1-2.1 3.4 0 3.4z"/>
   <path d="m192.2 116.28c-20.2-0.4-40.4-0.2-60.5 0-20.2 0.2-40.4 1.7-60.5 1.9-2.1 0-2.1 3.3 0 3.3 20.2 0.2 40.3 1.7 60.5 1.9s40.4 0.4 60.5 0c4.6-0.1 4.6-7 0-7.1z"/>
  </g>
 </g>
</svg>
